<?xml version="1.0" encoding="UTF-8" standalone="no"?>
<!DOCTYPE svg PUBLIC "-//W3C//DTD SVG 20010904//EN"
              "http://www.w3.org/TR/2001/REC-SVG-20010904/DTD/svg10.dtd">

<svg xmlns="http://www.w3.org/2000/svg"
     width="101.323mm" height="15.6085mm"
     viewBox="0 0 383 59">
  <path id="Selección"
        fill="white" stroke="white" stroke-width="1"
        d="M 41.00,53.00
           C 32.41,54.93 34.34,55.11 25.00,55.00
             -2.21,54.67 -1.59,21.07 8.21,10.04
             17.57,-0.49 30.94,1.08 43.00,5.00
             43.00,5.00 39.00,16.00 39.00,16.00
             34.00,14.08 27.06,11.34 22.10,14.74
             13.85,20.40 13.71,38.02 23.02,42.83
             28.39,45.60 35.47,42.85 41.00,42.00
             41.00,42.00 41.00,53.00 41.00,53.00 Z
           M 49.00,3.00
           C 49.00,3.00 63.00,3.00 63.00,3.00
             63.00,3.00 63.00,31.00 63.00,31.00
             63.03,36.19 63.69,42.44 70.00,43.64
             75.00,44.59 78.72,40.55 79.83,36.00
             79.83,36.00 79.83,3.00 79.83,3.00
             79.83,3.00 93.00,3.00 93.00,3.00
             93.00,3.00 93.00,33.00 93.00,33.00
             92.99,39.57 92.67,44.68 87.67,49.67
             80.12,57.21 60.58,57.13 53.56,48.82
             49.94,44.54 49.07,38.41 49.00,33.00
             49.00,33.00 49.00,3.00 49.00,3.00 Z
           M 160.00,3.00
           C 160.00,3.00 174.00,3.00 174.00,3.00
             174.00,3.00 174.00,44.00 174.00,44.00
             174.00,44.00 194.00,44.00 194.00,44.00
             194.00,44.00 194.00,55.00 194.00,55.00
             194.00,55.00 160.00,55.00 160.00,55.00
             160.00,55.00 160.00,3.00 160.00,3.00 Z
           M 201.00,3.00
           C 201.00,3.00 231.00,3.00 231.00,3.00
             231.00,3.00 231.00,13.00 231.00,13.00
             231.00,13.00 214.00,13.00 214.00,13.00
             214.00,13.00 214.00,22.00 214.00,22.00
             214.00,22.00 230.00,22.00 230.00,22.00
             230.00,22.00 230.00,33.00 230.00,33.00
             230.00,33.00 214.00,33.00 214.00,33.00
             214.00,33.00 214.00,44.00 214.00,44.00
             214.00,44.00 231.00,44.00 231.00,44.00
             231.00,44.00 231.00,55.00 231.00,55.00
             231.00,55.00 201.00,55.00 201.00,55.00
             201.00,55.00 201.00,3.00 201.00,3.00 Z
           M 301.00,3.00
           C 301.00,3.00 314.00,3.00 314.00,3.00
             314.00,3.00 314.00,25.00 314.00,25.00
             314.00,25.00 331.17,3.60 331.17,3.60
             331.17,3.60 344.00,3.00 344.00,3.00
             341.46,9.54 331.33,20.93 330.47,25.00
             329.78,28.30 332.42,32.23 334.00,35.00
             334.00,35.00 345.00,55.00 345.00,55.00
             342.16,55.00 333.36,55.33 331.21,54.40
             327.01,52.60 321.28,39.47 320.00,35.00
             318.22,35.63 316.93,35.87 315.60,37.42
             313.13,40.31 314.00,50.96 314.00,55.00
             314.00,55.00 301.00,55.00 301.00,55.00
             301.00,55.00 301.00,3.00 301.00,3.00 Z
           M 349.00,3.00
           C 349.00,3.00 379.00,3.00 379.00,3.00
             379.00,3.00 379.00,13.00 379.00,13.00
             364.66,13.00 362.14,11.54 362.00,22.00
             362.00,22.00 378.00,22.00 378.00,22.00
             378.00,22.00 378.00,33.00 378.00,33.00
             378.00,33.00 362.00,33.00 362.00,33.00
             362.00,33.00 362.00,44.00 362.00,44.00
             362.00,44.00 379.00,44.00 379.00,44.00
             379.00,44.00 379.00,55.00 379.00,55.00
             379.00,55.00 349.00,55.00 349.00,55.00
             349.00,55.00 349.00,3.00 349.00,3.00 Z
           M 107.43,9.02
           C 112.25,7.12 132.59,7.92 139.00,8.00
             140.89,8.03 143.88,7.96 145.43,9.17
             147.41,10.74 147.00,14.70 147.00,17.00
             147.00,17.00 147.00,41.00 147.00,41.00
             146.98,43.35 147.19,46.61 145.40,48.40
             143.48,50.32 139.54,49.99 137.00,50.00
             137.00,50.00 114.00,50.00 114.00,50.00
             111.27,49.96 107.92,50.10 106.17,47.57
             104.97,45.82 105.03,43.05 105.00,41.00
             105.00,41.00 105.00,18.00 105.00,18.00
             105.02,13.92 104.58,12.15 107.43,9.02 Z
           M 247.60,9.02
           C 252.30,7.02 272.62,7.96 279.00,8.00
             280.97,8.01 283.89,7.87 285.57,9.02
             288.28,10.88 287.98,15.10 288.00,18.00
             288.00,18.00 288.00,41.00 288.00,41.00
             287.96,43.36 288.06,46.46 286.26,48.26
             284.18,50.35 279.76,50.00 277.00,50.00
             277.00,50.00 255.00,50.00 255.00,50.00
             252.27,49.98 248.75,50.27 247.02,47.69
             246.00,46.14 246.04,43.78 246.00,42.00
             246.00,42.00 246.00,20.00 246.00,20.00
             246.00,16.13 245.29,12.24 247.60,9.02 Z
           M 112.15,11.60
           C 108.82,13.92 109.08,15.04 109.00,19.00
             109.00,19.00 109.00,39.00 109.00,39.00
             109.04,41.13 108.95,43.65 110.60,45.26
             112.58,47.20 116.42,46.99 119.00,47.00
             119.00,47.00 134.00,47.00 134.00,47.00
             136.58,46.99 140.42,47.20 142.40,45.26
             144.34,43.36 143.99,39.53 144.00,37.00
             144.00,37.00 144.00,20.00 144.00,20.00
             143.99,18.03 144.13,15.11 142.98,13.43
             141.00,10.56 136.09,11.01 133.00,11.00
             127.40,10.99 117.18,10.46 112.15,11.60 Z
           M 253.06,11.21
           C 248.94,13.33 249.09,14.64 249.00,19.00
             249.00,19.00 249.00,39.00 249.00,39.00
             249.04,41.13 248.95,43.65 250.60,45.26
             252.58,47.20 256.42,46.99 259.00,47.00
             259.00,47.00 274.00,47.00 274.00,47.00
             276.58,46.99 280.42,47.20 282.40,45.26
             284.34,43.36 283.99,39.53 284.00,37.00
             284.00,37.00 284.00,20.00 284.00,20.00
             283.99,18.03 284.13,15.11 282.98,13.43
             281.00,10.56 276.09,11.01 273.00,11.21
             273.00,11.21 253.06,11.21 253.06,11.21 Z
           M 115.13,16.17
           C 121.13,15.57 119.98,21.42 117.57,22.37
             115.09,23.35 109.96,20.57 115.13,16.17 Z
           M 254.60,17.04
           C 260.48,15.04 261.45,21.01 258.56,22.77
             255.82,24.43 251.54,21.58 254.60,17.04 Z
           M 264.31,26.08
           C 270.34,24.74 270.28,30.44 268.26,31.99
             265.88,33.82 259.81,30.99 264.31,26.08 Z
           M 132.60,35.04
           C 138.86,32.95 139.53,39.23 135.87,40.83
             133.10,42.04 129.81,39.16 132.60,35.04 Z
           M 273.60,36.04
           C 279.64,34.02 280.62,39.95 277.57,41.77
             274.77,43.44 270.55,40.55 273.60,36.04 Z" />
</svg>
